<?xml version="1.0" encoding="utf-8"?>
<!-- Generator: Adobe Illustrator 24.1.1, SVG Export Plug-In . SVG Version: 6.00 Build 0)  -->
<svg version="1.1" id="_x38_.75_x22__x__x_11.25_x22_"
	 xmlns="http://www.w3.org/2000/svg" xmlns:xlink="http://www.w3.org/1999/xlink" x="0px" y="0px" viewBox="0 0 307.9 234.4"
	 style="enable-background:new 0 0 307.9 234.4;" xml:space="preserve">
<style type="text/css">
	.st0{fill:#FFFFFF;}
	.st1{display:none;fill:#FFFFFF;}
</style>
<g>
	<g>
		<path class="st0" d="M32.8,123.8h6.6c5.6,0,7.2-4,7.5-6.6c0.3-2.6-0.1-6.6-5.7-6.6h-6.6L32.8,123.8z M22.1,150.5h-3.9
			c0,0,5.4-42,5.7-44.3c0.5-3.3,2.5-5.2,5.1-5.2h13.3c13.9,0,17.7,7.7,16.7,16.2c-1.1,8.6-7,16.2-20.9,16.2h-6.5
			c0,0-0.8,7.2-1.4,10.9C29.4,149.4,25.2,150.5,22.1,150.5"/>
		<path class="st0" d="M67.9,134c-0.8,6.6,0.2,9,4,9s5.6-2.4,6.4-9c0.8-6.6-0.2-9-4-9C70.5,125,68.7,127.4,67.9,134 M56.7,134
			c1.3-10.3,5.8-17.4,18.7-17.4s15.4,7.1,14.1,17.4c-1.3,10.3-5.7,17.4-18.6,17.4S55.4,144.3,56.7,134"/>
		<path class="st0" d="M120.2,127.1c-3.1-1.3-6.9-2.1-10.9-2.1c-3.1,0-4.9,0.7-5.2,2.3c-0.3,1.7,0.9,2.1,3.1,2.3
			c10.9,0.9,13.6,3.7,12.8,10.6c-0.8,6.3-5.4,11.2-17.2,11.2c-6.4,0-10-1.1-12.4-2.1l1.1-8.8c3.1,1.3,7.7,2.5,12.1,2.5
			c3.6,0,5.3-0.7,5.5-2.3c0.2-1.7-0.9-2.1-3.2-2.3c-10.9-0.9-13.6-3.7-12.7-10.6c0.8-6.7,6.1-11.2,16.8-11.2c6.3,0,9.2,0.8,11.4,1.7
			L120.2,127.1z"/>
		<path class="st0" d="M208.5,126.5c0,0-1.9-1.4-4.7-1.4c-5.2,0-6.7,3.2-7.4,8.9c-0.7,5.7,0,8.8,5.1,8.8c2.8,0,5.1-1.4,5.1-1.4
			L208.5,126.5z M216.6,150.5h-6.7l-1.6-2.6c-2.6,2-6.1,3.6-11.7,3.6c-9.1,0-12.8-5.3-11.3-17.4c1.6-12.2,6.8-17.4,15.8-17.4
			c5.6,0,8.6,1.6,10.8,3.6l2.2-2.6h6.7L216.6,150.5z"/>
		<path class="st0" d="M245.6,126.5c0,0-1.9-1.4-4.7-1.4c-5.2,0-6.7,3.2-7.4,8.9c-0.7,5.7,0,8.8,5.1,8.8c2.8,0,5.1-1.4,5.1-1.4
			L245.6,126.5z M247,150.5l-1.6-2.6c-2.6,2-6.1,3.6-11.7,3.6c-9.1,0-12.8-5.3-11.3-17.4c1.6-12.2,6.8-17.4,15.8-17.4
			c3.8,0,6.5,0.9,8.4,2.1c0,0,1.3-10.1,1.5-11.4c0.6-3.8,2.2-6.2,6.3-6.2h5.6l-6.4,49.5H247z"/>
		<path class="st0" d="M270.7,134c-0.8,6.6,0.2,9,4,9c3.8,0,5.6-2.4,6.4-9c0.8-6.6-0.2-9-4-9C273.3,125,271.6,127.4,270.7,134
			 M259.6,134c1.3-10.3,5.8-17.4,18.7-17.4s15.4,7.1,14.1,17.4c-1.3,10.3-5.7,17.4-18.6,17.4C260.8,151.4,258.3,144.3,259.6,134"/>
		<path class="st0" d="M143.3,152.6l-0.2,1.2c-0.5,3.9-3.3,5.6-8.1,5.6c-3.7,0-7.4-0.5-12.2-2.2l-1.1,8.8c3.2,1.2,8.2,1.9,13.2,1.9
			c14.4,0,18.5-7.5,19.6-15.6l1.2-9.4C152.4,147,148.2,150.3,143.3,152.6"/>
		<path class="st0" d="M134.5,134c0.8-5.7,2.3-8.8,7.4-8.8c2.8,0,4.7,1.4,4.7,1.4l-1.9,14.9c0,0-2.3,1.4-5.1,1.4
			C134.5,142.8,133.8,139.6,134.5,134 M134.8,151.4c3.8,0,6.8-0.9,9-2.1v0c4.9-2.4,9.2-5.9,12.4-10.1l2.8-21.7h-6.7l-2.2,2.6
			c-2.2-2-5.2-3.6-10.8-3.6c-9.1,0-14.2,5.3-15.8,17.4C122,146.1,125.7,151.4,134.8,151.4"/>
		<path class="st0" d="M171.6,119.2l-0.8-1.8h-6.7l-1.4,11.2C165.7,124.6,168.4,121.4,171.6,119.2"/>
		<path class="st0" d="M184,116.6c-0.3,0-0.6,0-0.9,0c-1.9,0-3.6,0.2-5.1,0.6c-0.3,0.1-0.6,0.2-0.9,0.2c-0.1,0-0.2,0.1-0.3,0.1
			c-0.9,0.3-1.6,0.6-2.1,0.8c-4.6,2.2-8,5.8-12.4,14.2l-2.3,18.1h11.1l3-23.3c1-0.8,4.2-1.9,7.6-1.9c1.5,0,2.9,0.1,3.4,0.3l1.1-8.5
			c-0.3-0.1-1-0.3-1.9-0.4C184.2,116.6,184.1,116.6,184,116.6"/>
		<path class="st1" d="M-43.8,151.5l1.2-9.1h2.1l-1.2,8.9c-0.3,2.5,1.5,2.8,2.6,2.8s3-0.3,3.3-2.8l1.2-8.9h2.1l-1.2,9.1
			c-0.5,3.7-3.7,4.4-5.7,4.4C-41.2,155.9-44.3,155.2-43.8,151.5"/>
		<path class="st1" d="M-26.3,155.7l0.8-6.1c0.1-0.9-0.3-1.3-1.3-1.3c-1,0-1.7,0.3-2.2,0.5l-0.9,6.9h-2.1l1.1-8.9h1.2l0.2,0.7
			c1-0.6,2.1-0.9,3.1-0.9c2.4,0,3.1,1.1,2.9,2.8l-0.8,6.3L-26.3,155.7L-26.3,155.7z"/>
		<path class="st1" d="M-19.5,142.9c0.8,0,1.4,0.6,1.4,1.3c0,0.7-0.6,1.3-1.4,1.3s-1.4-0.6-1.4-1.3
			C-20.9,143.5-20.3,142.9-19.5,142.9 M-21.8,153.5l0.9-6.7h2.1l-0.9,6.7c-0.1,0.5,0.1,0.7,0.7,0.7l-0.2,1.6c0,0-0.2,0-0.4,0
			C-21.3,155.8-22,155-21.8,153.5"/>
		<polygon class="st1" points="-10.5,146.8 -13.5,153.2 -14.8,146.8 -17.1,146.8 -14.7,155.9 -13,155.9 -8.2,146.8 		"/>
		<path class="st1" d="M-3.9,150.6c1.1,0,1.8-0.3,2-1.1c0.1-0.8-0.6-1.1-1.7-1.1c-1.5,0-2.1,0.9-2.3,2.3L-3.9,150.6L-3.9,150.6z
			 M-6.1,152c-0.1,1.3,0.3,2.2,2.2,2.2c1.2,0,2.2-0.2,3-0.5l-0.2,1.7c-1.1,0.4-2.4,0.6-3.4,0.6c-3.1,0-4-1.8-3.6-4.6
			c0.4-2.9,1.7-4.6,4.8-4.6c2.8,0,3.7,1.2,3.4,2.8c-0.2,1.5-1.4,2.6-4.1,2.6L-6.1,152L-6.1,152z"/>
		<path class="st1" d="M7.6,148.4c-0.2-0.1-0.6-0.1-1-0.1c-1.1,0-2,0.3-2.5,0.5l-0.9,6.9H1.1l1.1-8.9h1.2l0.2,0.7
			c0.8-0.5,1.9-0.9,3.1-0.9c0.4,0,0.7,0.1,1,0.1L7.6,148.4z"/>
		<path class="st1" d="M12,150.4c2.8,0.2,3.4,1,3.2,2.7c-0.2,1.5-1.4,2.9-4.4,2.9c-1.3,0-2.4-0.2-3-0.5l0.2-1.7
			c0.6,0.2,1.5,0.5,2.7,0.5c1.5,0,2.3-0.3,2.4-1.1c0.1-0.7-0.2-1-1.4-1.1c-2.8-0.2-3.4-1.1-3.2-2.6c0.2-1.5,1.4-2.8,4.2-2.8
			c1.3,0,2.2,0.1,2.8,0.4l-0.2,1.7c-0.8-0.3-1.6-0.5-2.8-0.5c-1.1,0-1.8,0.3-1.9,1.1C10.5,150,10.8,150.3,12,150.4"/>
		<path class="st1" d="M19.4,142.9c0.8,0,1.4,0.6,1.4,1.3c0,0.7-0.6,1.3-1.4,1.3s-1.4-0.6-1.4-1.3C18,143.5,18.6,142.9,19.4,142.9
			 M17.1,153.5l0.9-6.7h2.1l-0.9,6.7c-0.1,0.5,0.1,0.7,0.7,0.7l-0.2,1.6c0,0-0.2,0-0.4,0C17.6,155.8,16.9,155,17.1,153.5"/>
		<path class="st1" d="M23.9,151.3c-0.2,1.6-0.1,3,1.7,3c1,0,1.7-0.3,2.1-0.5l0.6-4.9c-0.4-0.2-1-0.5-2-0.5
			C24.5,148.3,24.1,149.6,23.9,151.3 M28.5,147.3l0.6-4.9h2.1l-1.7,13.3h-1.2l-0.3-0.7c-0.9,0.6-1.9,0.9-3.1,0.9
			c-2.7,0-3.5-1.7-3.1-4.6c0.4-2.9,1.6-4.6,4.3-4.6C27,146.6,27.9,146.9,28.5,147.3"/>
		<path class="st1" d="M38.5,148.8c-0.4-0.2-1-0.5-2-0.5c-1.8,0-2.3,1.3-2.5,3c-0.2,1.6-0.1,3,1.7,3c1,0,1.7-0.3,2.1-0.5L38.5,148.8
			z M39.7,155.7h-1.2l-0.3-0.7c-0.9,0.6-1.9,0.9-3.1,0.9c-2.7,0-3.5-1.7-3.1-4.6c0.4-2.9,1.6-4.6,4.3-4.6c1.3,0,2.2,0.4,2.9,0.9
			l0.4-0.7h1.2L39.7,155.7z"/>
		<path class="st1" d="M44.2,151.3c-0.2,1.6-0.1,3,1.7,3c1,0,1.7-0.3,2.1-0.5l0.6-4.9c-0.4-0.2-1-0.5-2-0.5
			C44.8,148.3,44.4,149.6,44.2,151.3 M48.8,147.3l0.6-4.9h2.1l-1.7,13.3h-1.2l-0.3-0.7c-0.9,0.6-1.9,0.9-3.1,0.9
			c-2.7,0-3.5-1.7-3.1-4.6c0.4-2.9,1.6-4.6,4.3-4.6C47.3,146.6,48.2,146.9,48.8,147.3"/>
		<path class="st1" d="M98.9,148.9h2.5c2.1,0,2.7-1.4,2.8-2.3c0.1-1-0.1-2.3-2.2-2.3h-2.5L98.9,148.9z M98,155.7h-2.1l1.7-13.3h4.5
			c3.6,0,4.6,2,4.3,4.2c-0.3,2.2-1.8,4.1-5.4,4.1h-2.4L98,155.7z"/>
		<path class="st1" d="M110.2,145.9l1.6-3.6h2.5l-2.3,3.6H110.2z M109.2,146.8l-0.8,6.1c-0.1,0.9,0.3,1.3,1.3,1.3
			c1,0,1.7-0.3,2.2-0.5l0.9-6.9h2.1l-1.1,8.9h-1.2l-0.3-0.7c-1,0.6-2.1,0.9-3.1,0.9c-2.4,0-3.1-1.1-2.8-2.8l0.8-6.3L109.2,146.8
			L109.2,146.8z"/>
		<path class="st1" d="M118.3,148.8l-0.6,4.9c0.4,0.2,1,0.5,2,0.5c1.8,0,2.3-1.3,2.5-3c0.2-1.6,0.1-3-1.7-3
			C119.4,148.3,118.7,148.6,118.3,148.8 M124.3,151.3c-0.4,2.9-1.6,4.6-4.3,4.6c-1.3,0-2.2-0.4-2.9-0.9l-0.4,0.7h-1.2l1.7-13.3h2.1
			l-0.6,4.9c0.7-0.4,1.7-0.7,2.6-0.7C123.9,146.6,124.7,148.4,124.3,151.3"/>
		<path class="st1" d="M125.5,153.5l1.4-11.1h2.1l-1.4,11.1c-0.1,0.5,0.1,0.7,0.7,0.7l-0.2,1.6c0,0-0.2,0-0.4,0
			C126,155.8,125.3,155,125.5,153.5"/>
		<path class="st1" d="M132.1,142.9c0.8,0,1.4,0.6,1.4,1.3c0,0.7-0.6,1.3-1.4,1.3s-1.4-0.6-1.4-1.3
			C130.8,143.5,131.4,142.9,132.1,142.9 M129.9,153.5l0.9-6.7h2.1l-0.9,6.7c-0.1,0.5,0.1,0.7,0.7,0.7l-0.2,1.6c0,0-0.2,0-0.4,0
			C130.4,155.8,129.7,155,129.9,153.5"/>
		<path class="st1" d="M138.2,154.1c1.1,0,1.8-0.2,2.5-0.4l-0.2,1.7c-0.8,0.3-1.7,0.4-2.6,0.4c-3.3,0-4.1-1.9-3.7-4.6
			c0.4-2.8,1.6-4.6,4.9-4.6c1,0,1.8,0.1,2.5,0.4l-0.2,1.7c-0.6-0.3-1.3-0.4-2.4-0.4c-1.8,0-2.5,1.2-2.7,2.9
			C136,153,136.4,154.1,138.2,154.1"/>
		<path class="st1" d="M148.6,148.8c-0.4-0.2-1-0.5-1.9-0.5c-1.8,0-2.3,1.3-2.5,3c-0.2,1.6-0.1,3,1.7,3c1,0,1.7-0.3,2.1-0.5
			L148.6,148.8z M149.8,155.7h-1.2l-0.3-0.7c-0.9,0.6-1.9,0.9-3.1,0.9c-2.7,0-3.5-1.7-3.1-4.6c0.4-2.9,1.6-4.6,4.3-4.6
			c1.3,0,2.2,0.4,2.9,0.9l0.4-0.7h1.2L149.8,155.7z"/>
		<path class="st1" d="M157.2,151.3c-0.2,1.6-0.1,3,1.7,3c1,0,1.7-0.3,2.1-0.5l0.6-4.9c-0.4-0.2-0.9-0.5-1.9-0.5
			C157.8,148.3,157.4,149.6,157.2,151.3 M161.8,147.3l0.6-4.9h2.1l-1.7,13.3h-1.2l-0.3-0.7c-0.9,0.6-1.9,0.9-3.1,0.9
			c-2.7,0-3.5-1.7-3.1-4.6c0.4-2.9,1.6-4.6,4.3-4.6C160.3,146.6,161.2,146.9,161.8,147.3"/>
		<path class="st1" d="M169,150.6c1.1,0,1.8-0.3,1.9-1.1c0.1-0.8-0.6-1.1-1.7-1.1c-1.5,0-2.1,0.9-2.3,2.3L169,150.6L169,150.6z
			 M166.8,152c-0.1,1.3,0.3,2.2,2.2,2.2c1.2,0,2.2-0.2,3.1-0.5l-0.2,1.7c-1.1,0.4-2.4,0.6-3.4,0.6c-3.1,0-4-1.8-3.6-4.6
			c0.4-2.9,1.7-4.6,4.8-4.6c2.8,0,3.6,1.2,3.4,2.8c-0.2,1.5-1.4,2.6-4.1,2.6L166.8,152L166.8,152z"/>
		<polygon class="st1" points="178.7,142.4 176.9,155.7 185.5,155.7 185.7,153.9 179.3,153.9 179.8,149.7 185.6,149.7 185.9,147.9 
			180.1,147.9 180.5,144.2 187,144.2 187.2,142.4 		"/>
		<path class="st1" d="M187.4,153.5l1.4-11.1h2.1l-1.4,11.1c-0.1,0.5,0.1,0.7,0.7,0.7l-0.2,1.6c0,0-0.2,0-0.4,0
			C187.9,155.8,187.2,155,187.4,153.5"/>
		<path class="st1" d="M201,144.9l1,5.9h-3.6L201,144.9z M200.3,142.2l-6.2,13.5h2.3l1.4-3.3h4.5l0.6,3.3h2.3l-2.7-13.5H200.3z"/>
		<path class="st1" d="M206.6,153.5l1.4-11.1h2.1l-1.4,11.1c-0.1,0.5,0.1,0.7,0.7,0.7l-0.2,1.6c0,0-0.2,0-0.4,0
			C207.1,155.8,206.4,155,206.6,153.5"/>
		<path class="st1" d="M215.9,155.8c-0.3,0.1-0.9,0.1-1.2,0.1c-2.1,0-3.2-0.9-2.9-2.8l0.6-4.6h-1.7l0.2-1.2l1.8-0.5l0.3-2.1l2.1-0.6
			l-0.3,2.7h2.6l-0.2,1.7h-2.6l-0.6,4.4c-0.1,0.9,0.3,1.3,1.4,1.3c0.3,0,0.6,0,0.8-0.1L215.9,155.8z"/>
		<path class="st1" d="M223.7,151.3c0.2-1.9,0.1-3-1.6-3s-2.2,1.1-2.4,3c-0.2,1.9-0.1,3,1.7,3C223,154.2,223.4,153.2,223.7,151.3
			 M217.5,151.3c0.4-2.7,1.4-4.6,4.8-4.6s3.9,1.9,3.6,4.6c-0.4,2.7-1.4,4.6-4.8,4.6S217.1,154,217.5,151.3"/>
	</g>
	<g>
		<path class="st0" d="M160.4,89.1c-0.3,0-0.5-0.1-0.7-0.1c-0.9-0.2-1.7-0.4-2.5-0.6c-1-0.2-2.1-0.5-3.1-0.7
			c-0.4-0.1-0.8-0.1-1.2-0.2c-0.5-0.1-0.9-0.2-1.4-0.3c-0.5-0.1-1-0.2-1.5-0.3c-0.4-0.1-0.8-0.2-1.1-0.3c-0.7-0.1-1.3-0.3-2-0.4
			c-2.4-0.5-4.7-1-7.1-1.5c-0.9-0.2-1.7-0.4-2.5-0.6c-1.1-0.2-2.3-0.4-3.4-0.7c-1.2-0.2-2.3-0.5-3.5-0.8c-2.4-0.5-4.8-1-7.1-1.5
			c-2.6-0.6-5.3-1.2-8-1.7c-0.8-0.2-1.6-0.4-2.5-0.6c-0.4-0.1-0.8-0.1-1.3-0.2c-0.8-0.2-1.5-0.3-2.3-0.5c-0.5-0.1-1-0.2-1.4-0.4
			c-0.5-0.1-0.9-0.4-1.3-0.8c-0.3-0.3-0.3-0.7,0-1c0.4-0.4,0.8-0.8,1.4-1c0.9-0.3,1.7-0.6,2.6-0.9c0.5-0.2,1-0.4,1.6-0.6
			c0.4-0.1,0.9-0.3,1.3-0.4c0.1,0,0.2-0.1,0.3-0.1c0.8-0.3,1.6-0.6,2.4-0.9c0.8-0.3,1.7-0.6,2.5-0.9c0.9-0.3,1.8-0.6,2.7-0.9
			c1.2-0.4,2.4-0.9,3.6-1.3c1.2-0.4,2.4-0.8,3.7-1.2c0.3-0.1,0.6-0.2,0.9-0.3c1.4-0.6,3-1,4.5-1.5c1.4-0.5,2.8-1,4.3-1.5
			c1.7-0.5,3.3-1.2,4.9-1.7c0.7-0.2,1.4-0.4,2-0.6c1.2-0.4,2.4-0.8,3.6-1.2c0.8-0.3,1.6-0.6,2.4-0.9c1.6-0.5,3.1-1.1,4.7-1.6
			c0.4-0.1,0.8-0.3,1.3-0.5c1-0.3,1.9-0.6,2.9-0.9c0.5-0.1,1-0.1,1.5,0c0.5,0.1,1,0.2,1.5,0.4c1.4,0.4,2.9,0.5,4.3,0.9
			c1.1,0.3,2.2,0.4,3.3,0.7c1.9,0.5,3.8,0.8,5.7,1.3c1.1,0.3,2.3,0.4,3.5,0.7c1.3,0.3,2.7,0.5,4,0.8c2.6,0.6,5.3,1.2,8,1.7
			c0.4,0.1,0.8,0.2,1.1,0.3c0.8,0.2,1.6,0.3,2.3,0.4c0.6,0.1,1.3,0.3,1.9,0.4c0.4,0.1,0.8,0.2,1.3,0.2c0.1,0,0.1,0,0.2,0
			c1.2,0.3,2.5,0.5,3.7,0.8c1.1,0.2,2.2,0.5,3.3,0.7c1.4,0.3,2.9,0.6,4.3,0.9c0.8,0.2,1.6,0.3,2.4,0.4c0.7,0.1,1.3,0.3,1.9,0.5
			c0.4,0.2,0.8,0.4,1.1,0.7c0.3,0.3,0.4,0.5,0.1,0.8c-0.3,0.3-0.6,0.6-0.9,0.8c-0.6,0.4-1.2,0.7-1.9,0.8c-0.5,0.1-0.9,0.3-1.4,0.5
			c-0.3,0.1-0.5,0.2-0.7,0.3c-1.4,0.4-2.7,1-4.1,1.4c-0.5,0.2-1,0.3-1.5,0.4c-0.9,0.3-1.8,0.6-2.7,1c-0.8,0.6-1.8,0.7-2.7,1
			c-0.9,0.3-1.9,0.6-2.8,0.9c-0.3,0.1-0.6,0.1-0.9,0c-1.9-0.5-3.9-1.1-5.8-1.6c-1.4-0.4-2.8-0.7-4.2-1.1c-0.8-0.2-1.6-0.4-2.4-0.7
			c-0.3-0.1-0.6-0.1-0.8-0.2c-1-0.3-1.9-0.5-2.9-0.8c-1-0.3-2-0.5-3-0.8c-1.7-0.4-3.4-0.9-5.1-1.4c-0.9-0.3-1.9-0.5-2.8-0.7
			c-1.1-0.3-2.3-0.6-3.4-0.9c-1-0.3-2.1-0.5-3.1-0.8c-0.6-0.2-1.3-0.1-1.9,0c-1.1,0.2-1.6,0.8-1.8,1.8c-0.2,0.6,0,1.1,0.5,1.5
			c0.5,0.4,1.1,0.7,1.7,0.9c2.1,0.5,4.2,1,6.3,1.6c1.2,0.3,2.3,0.6,3.5,0.9c0.3,0.1,0.6,0.1,0.9,0.2c0.9,0.2,1.8,0.5,2.7,0.7
			c0.3,0.1,0.5,0.1,0.8,0.2c1.3,0.3,2.6,0.7,4,1c1.4,0.3,2.8,0.7,4.1,1c1.7,0.4,3.4,0.9,5.1,1.3c0.1,0,0.1,0.1,0.2,0.1
			c0.1,0.1,0.1,0.3,0,0.3c-0.1,0-0.1,0.1-0.2,0.1c-1.6,0.5-3.3,1-4.9,1.6c-1,0.4-2.1,0.6-3.1,1c-0.7,0.3-1.4,0.5-2.1,0.8
			c-0.4,0.2-0.9,0.3-1.4,0.4c-0.6,0.2-1.1,0.4-1.7,0.6c-0.6,0.2-1.2,0.4-1.8,0.7c-1,0.3-1.9,0.6-2.9,0.9c-0.9,0.3-1.9,0.7-2.8,1
			c-0.1,0-0.1,0.1-0.2,0.1c-0.8,0.2-1.6,0.5-2.3,0.7c-0.3,0.1-0.5,0.2-0.8,0.3c-0.8,0.3-1.7,0.6-2.5,0.9
			C161.1,89,160.7,89.1,160.4,89.1z"/>
		<path class="st0" d="M194.3,83.3c0,0.2,0.1,0.4,0.1,0.5c0,1.7,0.1,3.3,0.1,5c0,0.4-0.1,0.7-0.4,1c-1.1,1-1.7,2.2-1.9,3.6
			c-0.2,1.2-0.1,2.3,0.5,3.4c0.3,0.6,0.7,1.2,1.2,1.7c0.1,0.1,0.2,0.2,0.3,0.3c0,0.4-0.2,0.7-0.4,0.9c-0.4,0.6-1,1.1-1.7,1.4
			c-1.4,0.7-2.8,1.3-4.3,2c-0.5,0.2-1,0.4-1.5,0.6c-1.6,0.6-3.3,1.2-5,1.7c-0.3,0.1-0.6,0.2-0.8,0.3c-0.9,0.4-1.9,0.6-2.8,0.8
			c-0.5,0.1-1.1,0.2-1.6,0.3c-0.4,0.1-0.8,0.2-1.2,0.3s-0.8,0.3-1.2,0.3c-0.2,0-0.5,0.1-0.7,0.2c-0.2,0-0.4,0.1-0.6,0.1
			c-0.5,0-1.1,0.1-1.6,0.3c-0.1,0-0.2,0.1-0.3,0.1c-0.6,0-1.2,0.1-1.7,0.3c-0.2,0.1-0.4,0.1-0.6,0.1c-0.9,0.1-1.8,0.1-2.7,0.3
			c-0.1,0.1-0.3,0.1-0.5,0.1c-2,0.1-4,0.2-6,0.4c-0.2,0-0.4,0.1-0.6,0c-0.6-0.1-1.3-0.1-1.9,0c-0.4,0-0.9,0.1-1.3-0.1
			c-0.1,0-0.2,0-0.2,0c-0.8,0-1.5-0.1-2.3-0.1c-0.8,0-1.5-0.1-2.3-0.2c-0.2,0-0.5-0.1-0.7-0.1c-0.6,0.1-1.2,0-1.7-0.2
			c-0.2,0-0.4-0.1-0.6-0.1c-1.2,0-2.4-0.3-3.6-0.4c-0.2,0-0.4-0.1-0.6-0.1c-0.7-0.1-1.4-0.1-2.1-0.4c-0.3-0.1-0.6-0.2-0.9-0.2
			c-1-0.1-2-0.4-3-0.7c-0.1,0-0.2-0.1-0.3-0.1c-2-0.4-3.9-1-5.8-1.7c-0.1,0-0.2-0.1-0.3-0.1c-1.1-0.3-2.1-0.8-3-1.5
			c-0.4-0.3-0.8-0.7-1.2-1.1c-0.2-0.2-0.3-0.5-0.3-0.8c0-0.4,0-0.8,0-1.1c-0.1-4.1-0.2-8.3-0.2-12.4c0-0.2,0-0.4,0-0.7
			c0.6,0,1,0.1,1.5,0.2c1,0.3,2.1,0.5,3.2,0.7c1.7,0.3,3.5,0.6,5.2,1.1c0.1,0,0.2,0,0.2,0c1.2,0.2,2.3,0.5,3.5,0.7
			c1.9,0.4,3.7,0.8,5.6,1.2c1,0.2,2.1,0.5,3.1,0.6c1.4,0.2,2.7,0.6,4.1,0.9c0.8,0.2,1.5,0.4,2.3,0.5c1.3,0.2,2.6,0.6,3.9,0.8
			c0.2,0,0.4,0.1,0.5,0.1c1.3,0.4,2.6,0.3,3.8-0.3c1-0.5,2.1-0.7,3.2-1.1c0.6-0.2,1.2-0.4,1.9-0.7c1-0.3,1.9-0.7,2.9-1
			c1.4-0.5,2.9-0.9,4.3-1.3c0.7-0.2,1.4-0.5,2.1-0.8c0.6-0.2,1.3-0.4,1.9-0.6c0.1,0,0.1,0,0.2-0.1c1.6-0.7,3.3-1.1,5-1.7
			c0.4-0.2,0.8-0.3,1.3-0.5c0.5-0.2,1-0.3,1.4-0.4c1.9-0.6,3.7-1.3,5.6-1.9c0.5-0.2,1-0.3,1.5-0.4C194,83.3,194.1,83.3,194.3,83.3z"
			/>
		<path class="st0" d="M218,113.1c-0.4,0.3-0.8,0.6-1.1,0.8c-0.5,0.3-1.1,0.7-1.7,1c-0.7,0.4-1.4,0.8-2.1,1.1
			c-0.6,0.3-1.2,0.5-1.8,0.7c-0.3,0.1-0.7,0.1-1,0c-1.1-0.2-2-0.7-2.9-1.3c-1.3-0.9-2.4-1.9-3.2-3.2c-0.4-0.6-0.8-1.3-1-1.9
			c-0.3-0.9-0.6-1.8-0.6-2.8c0-0.2,0-0.4-0.1-0.6c-0.2-0.5-0.2-1-0.2-1.5c0-0.6,0-1.2,0-1.8c0-0.5,0-1.1,0.1-1.6
			c0.1-0.2,0.1-0.5,0.1-0.8c0-0.7,0-1.4,0-2.1c0-0.6,0-1.1,0.1-1.6c0.1-0.2,0-0.3,0.1-0.5c0-1.1,0-1.1-0.9-1.8
			c-1.1-0.8-1.5-1.9-1.4-3.2c0-0.1,0.1-0.3,0.1-0.4c0.3-0.5,0.6-1.1,1.1-1.5c0.2-0.2,0.4-0.4,0.6-0.6c0.4-0.4,0.6-0.8,0.6-1.3
			c-0.1-0.7-0.1-1.3-0.2-2c-0.2-0.7-0.3-1.4-0.4-2.1c-0.1-0.3-0.2-0.6-0.3-0.9c-0.3-0.7-0.7-1.5-1.1-2.2c-0.1-0.3-0.3-0.5-0.5-0.7
			c-0.3-0.3-0.5-0.7-0.8-1c-0.2-0.2-0.5-0.4-0.7-0.6c-0.1-0.1-0.2-0.2-0.3-0.3c0.2-0.5,0.6-0.7,1-0.8c0.7-0.2,1.4-0.4,2-0.6
			c0.3-0.1,0.6-0.2,0.8-0.3c0.3-0.1,0.6,0,0.8,0.2c0.8,0.9,1.7,1.8,2.3,2.9c0.3,0.5,0.6,1,0.7,1.5c0.2,0.7,0.6,1.4,0.6,2.2
			c0,0.1,0,0.1,0,0.2c0.3,0.6,0.2,1.2,0.3,1.8c0,0.7,0,1.3,0,2c0,0.2,0,0.3,0,0.5c0,0.3,0.1,0.4,0.4,0.5c0.7,0.1,1.3,0.6,1.8,1
			c0.6,0.4,0.9,1,1.2,1.6c0,0.1,0.1,0.1,0.1,0.2c0.1,1.3-0.1,2.6-1.1,3.5c-0.4,0.3-0.7,0.7-1.2,1c-0.2,0.1-0.3,0.3-0.3,0.5
			c0,0.4-0.1,0.8,0.1,1.2c0.1,0.2,0.2,0.5,0.2,0.7c0.1,0.6,0.3,1.2,0.5,1.7c0.1,0.1,0.2,0.2,0.2,0.3c0.3,1.2,1,2.2,1.4,3.3
			c0.1,0.1,0.1,0.3,0.2,0.4c0.5,0.8,1.1,1.7,1.6,2.5c0.3,0.5,0.8,0.9,1.1,1.5c0.6,0.9,1.4,1.6,2.1,2.4c0.5,0.7,1.2,1.2,1.8,1.8
			C217.4,112.4,217.7,112.7,218,113.1z"/>
	</g>
</g>
</svg>
